# xmcd
#
# Track frame offsets:
#	150
#	14075
#	24736
#	37111
#	49005
#	59931
#	72362
#	80968
#	91204
#	103565
#	116420
#	129770
#	143273
#	155035
#
# Disc length: 2255 seconds
# Revision: 1
# Processed by: cddbd v1.5.2PL0 Copyright (c) Steve Scherf et al.
# Submitted via: dBpowerAMP V12.0
#
DISCID=c408cd0e
DTITLE=Billie Joe Spears - Country Ladies
DYEAR=2006
DGENRE=Country
TTITLE0=Mr.Walker, It's All Over
TTITLE1=I'm So Lonesome I Could Cry
TTITLE2=You've Got The Power
TTITLE3=Look What They've Done To My Song Ma
TTITLE4=If It Ain't Love
TTITLE5=The Cheatin' Kind
TTITLE6=You're My Man
TTITLE7=It Makes No Difference Now
TTITLE8=Sunshine
TTITLE9=He's On The Run Again
TTITLE10=Fever
TTITLE11=One More Chance
TTITLE12=Ease The Want In Me
TTITLE13=I'ill Never Be Free
EXTD=
EXTT0=
EXTT1=
EXTT2=
EXTT3=
EXTT4=
EXTT5=
EXTT6=
EXTT7=
EXTT8=
EXTT9=
EXTT10=
EXTT11=
EXTT12=
EXTT13=
PLAYORDER=
